<svg xmlns="http://www.w3.org/2000/svg" fill="none" viewBox="0 0 18 18" id="ui--phone"><path d="M15.869 11.559a9.29 9.29 0 01-2.918-.465c-.457-.156-1.018-.013-1.297.274l-1.84 1.389c-2.134-1.14-3.448-2.453-4.571-4.571L6.59 6.394c.35-.35.476-.86.325-1.34A9.305 9.305 0 016.45 2.13c0-.724-.59-1.313-1.313-1.313H2.13c-.724 0-1.313.59-1.313 1.313 0 8.3 6.752 15.05 15.05 15.05.725 0 1.314-.588 1.314-1.312v-2.997c0-.724-.59-1.313-1.313-1.313z" stroke="currentColor" stroke-width="1.2"><svg class="icon icon-ui--phone ">
            <use xmlns:xlink="http://www.w3.org/1999/xlink" xlink:href="/assets/images/spriteInline.svg#ui--phone"></use>
        </svg></path></svg>